<?xml version="1.0" encoding="utf-8"?>
<!-- Generator: Adobe Illustrator 21.1.0, SVG Export Plug-In . SVG Version: 6.00 Build 0)  -->
<svg version="1.1" id="Layer_1" xmlns="http://www.w3.org/2000/svg" xmlns:xlink="http://www.w3.org/1999/xlink" x="0px" y="0px"
	 width="150px" height="15px" viewBox="0 0 150 15" style="enable-background:new 0 0 150 15;" xml:space="preserve">
<polygon style="fill:#565D65;" points="0,0 15,15 150,15 150,0 "/>
<g>
	<path style="fill:#FFFFFF;" d="M40.4,8.6h0.8v0c0,0.2-0.1,0.4-0.2,0.6s-0.4,0.4-0.6,0.5c-0.3,0.1-0.6,0.2-0.9,0.2
		c-0.7,0-1.3-0.2-1.6-0.7c-0.4-0.4-0.6-1.1-0.6-1.8c0-0.8,0.2-1.4,0.6-1.8C38.2,5.2,38.7,5,39.4,5c0.4,0,0.7,0.1,0.9,0.2
		c0.3,0.1,0.5,0.3,0.6,0.5c0.2,0.2,0.2,0.4,0.2,0.7v0h-0.8v0c0-0.2-0.1-0.3-0.2-0.5c-0.2-0.1-0.4-0.2-0.8-0.2c-0.4,0-0.7,0.1-1,0.4
		S38,6.8,38,7.5c0,0.7,0.1,1.1,0.4,1.4c0.3,0.3,0.6,0.4,1,0.4c0.3,0,0.6-0.1,0.7-0.2S40.4,8.9,40.4,8.6L40.4,8.6z"/>
	<path style="fill:#FFFFFF;" d="M44.2,10c-0.6,0-1.2-0.2-1.6-0.6c-0.4-0.4-0.7-1-0.7-1.9c0-0.8,0.2-1.5,0.7-1.9
		c0.4-0.4,1-0.6,1.6-0.6c0.6,0,1.1,0.2,1.6,0.6c0.4,0.4,0.7,1,0.7,1.9c0,0.8-0.2,1.5-0.7,1.9C45.4,9.8,44.8,10,44.2,10z M44.2,9.3
		c0.4,0,0.8-0.2,1-0.5c0.3-0.3,0.4-0.8,0.4-1.3c0-0.6-0.1-1-0.4-1.3c-0.3-0.3-0.6-0.5-1-0.5c-0.4,0-0.8,0.2-1,0.5
		c-0.3,0.3-0.4,0.8-0.4,1.3c0,0.6,0.1,1,0.4,1.3C43.4,9.2,43.8,9.3,44.2,9.3z"/>
	<path style="fill:#FFFFFF;" d="M48.3,9.9h-0.8V5.1h0.8v0.8c0.2-0.3,0.3-0.4,0.5-0.6c0.2-0.1,0.3-0.2,0.5-0.3C49.4,5,49.6,5,49.8,5
		c0.3,0,0.6,0.1,0.8,0.2c0.2,0.1,0.4,0.3,0.6,0.5c0.1,0.2,0.2,0.6,0.2,1.1v3h-0.8V7.2c0-0.4,0-0.7-0.1-0.9c-0.1-0.2-0.2-0.3-0.3-0.4
		c-0.2-0.1-0.3-0.2-0.5-0.2c-0.2,0-0.5,0.1-0.7,0.2s-0.4,0.3-0.5,0.6c-0.1,0.2-0.2,0.6-0.2,1V9.9z"/>
	<path style="fill:#FFFFFF;" d="M55.5,9.2v0.7C55.1,10,54.8,10,54.6,10c-0.3,0-0.6-0.1-0.8-0.2c-0.2-0.1-0.4-0.3-0.5-0.5
		c-0.1-0.2-0.2-0.6-0.2-1.1V5.8h-0.8V5.1h0.8V4h0.8v1.1h1.4v0.7h-1.4V8c0,0.4,0,0.7,0.1,0.9C54,9,54.1,9.2,54.3,9.2
		c0.1,0.1,0.3,0.1,0.5,0.1C54.9,9.3,55.2,9.3,55.5,9.2z"/>
	<path style="fill:#FFFFFF;" d="M59.5,8.6h0.8v0c0,0.2-0.1,0.4-0.2,0.6s-0.4,0.4-0.7,0.5c-0.3,0.1-0.6,0.2-0.9,0.2
		c-0.7,0-1.3-0.2-1.6-0.7c-0.4-0.5-0.6-1.1-0.6-1.8c0-0.7,0.2-1.3,0.6-1.8C57.2,5.2,57.7,5,58.4,5c0.4,0,0.7,0.1,1,0.2
		s0.5,0.4,0.7,0.7c0.2,0.3,0.3,0.8,0.3,1.4v0.3H57c0,0.5,0.1,0.9,0.4,1.3s0.6,0.5,1.1,0.5c0.3,0,0.6-0.1,0.7-0.2
		C59.4,9,59.5,8.9,59.5,8.6L59.5,8.6z M57,7h2.5V6.9c0-0.2-0.1-0.4-0.2-0.6c-0.1-0.2-0.2-0.4-0.4-0.5c-0.2-0.1-0.4-0.2-0.6-0.2
		c-0.3,0-0.6,0.1-0.8,0.4C57.3,6.2,57.1,6.6,57,7z"/>
	<path style="fill:#FFFFFF;" d="M62.2,9.9h-0.8V5.1h0.8v0.8c0.2-0.3,0.3-0.4,0.5-0.6c0.2-0.1,0.3-0.2,0.5-0.3C63.4,5,63.6,5,63.8,5
		c0.3,0,0.6,0.1,0.8,0.2c0.2,0.1,0.4,0.3,0.6,0.5c0.1,0.2,0.2,0.6,0.2,1.1v3h-0.8V7.2c0-0.4,0-0.7-0.1-0.9c-0.1-0.2-0.2-0.3-0.3-0.4
		c-0.2-0.1-0.3-0.2-0.5-0.2c-0.2,0-0.5,0.1-0.7,0.2s-0.4,0.3-0.5,0.6c-0.1,0.2-0.2,0.6-0.2,1V9.9z"/>
	<path style="fill:#FFFFFF;" d="M69.4,9.2v0.7C69.1,10,68.8,10,68.6,10c-0.3,0-0.6-0.1-0.8-0.2c-0.2-0.1-0.4-0.3-0.5-0.5
		C67.1,9.1,67,8.7,67,8.2V5.8h-0.8V5.1H67V4h0.8v1.1h1.4v0.7h-1.4V8c0,0.4,0,0.7,0.1,0.9C68,9,68.1,9.2,68.2,9.2
		c0.1,0.1,0.3,0.1,0.5,0.1C68.9,9.3,69.1,9.3,69.4,9.2z"/>
	<path style="fill:#FFFFFF;" d="M74,11.7h-0.8V5.1H74v0.8c0.2-0.3,0.3-0.5,0.5-0.6c0.2-0.1,0.3-0.2,0.5-0.3S75.4,5,75.6,5
		c0.4,0,0.7,0.1,1,0.3c0.3,0.2,0.5,0.5,0.7,0.9c0.2,0.4,0.3,0.8,0.3,1.3c0,0.7-0.2,1.3-0.5,1.8c-0.4,0.5-0.8,0.7-1.5,0.7
		c-0.2,0-0.4,0-0.6-0.1c-0.2-0.1-0.3-0.1-0.5-0.3C74.4,9.5,74.2,9.3,74,9V11.7z M74,7.5c0,0.5,0.1,1,0.4,1.3c0.2,0.3,0.6,0.5,1,0.5
		c0.4,0,0.7-0.2,1-0.5s0.4-0.8,0.4-1.4c0-0.7-0.1-1.2-0.4-1.5c-0.3-0.3-0.6-0.4-0.9-0.4c-0.3,0-0.5,0.1-0.7,0.2
		c-0.2,0.2-0.4,0.4-0.5,0.7C74.1,6.8,74,7.1,74,7.5z"/>
	<path style="fill:#FFFFFF;" d="M81.4,9.9c-0.1-0.3-0.1-0.5-0.1-0.7c-0.3,0.3-0.6,0.6-0.9,0.7C80.2,10,80,10,79.7,10
		c-0.4,0-0.7-0.1-0.9-0.3s-0.4-0.5-0.4-1c0-0.5,0.2-0.8,0.6-1.1s1-0.5,1.9-0.6l0.4-0.1V6.4c0-0.3-0.1-0.5-0.3-0.6
		c-0.2-0.1-0.4-0.2-0.7-0.2c-0.3,0-0.6,0.1-0.7,0.2c-0.2,0.1-0.3,0.3-0.3,0.5v0.1h-0.9V6.3c0-0.2,0.1-0.4,0.3-0.7
		c0.2-0.2,0.4-0.4,0.7-0.5S80,5,80.4,5C80.7,5,81,5,81.3,5.1c0.3,0.1,0.5,0.3,0.6,0.4c0.1,0.2,0.2,0.5,0.2,1v1.8c0,0.2,0,0.4,0,0.6
		c0,0.2,0.1,0.5,0.2,0.8H81.4z M81.3,7.5l-0.2,0.1c-0.8,0.2-1.3,0.4-1.5,0.6c-0.2,0.2-0.3,0.4-0.3,0.6c0,0.1,0,0.2,0.1,0.3
		c0.1,0.1,0.2,0.2,0.3,0.3s0.3,0.1,0.4,0.1c0.2,0,0.4-0.1,0.6-0.2s0.4-0.3,0.5-0.5c0.1-0.2,0.2-0.5,0.2-0.8V7.5z"/>
	<path style="fill:#FFFFFF;" d="M84.2,9.9h-0.8V5.1h0.8V6c0.1-0.2,0.3-0.4,0.4-0.6s0.3-0.2,0.5-0.3C85.3,5,85.5,5,85.7,5
		c0.2,0,0.3,0,0.4,0.1v0.8c-0.2-0.1-0.4-0.1-0.6-0.1c-0.3,0-0.6,0.1-0.9,0.4s-0.4,0.7-0.4,1.4V9.9z"/>
	<path style="fill:#FFFFFF;" d="M89.7,9.2v0.7C89.3,10,89,10,88.8,10c-0.3,0-0.6-0.1-0.8-0.2c-0.2-0.1-0.4-0.3-0.5-0.5
		c-0.1-0.2-0.2-0.6-0.2-1.1V5.8h-0.8V5.1h0.8V4H88v1.1h1.4v0.7H88V8c0,0.4,0,0.7,0.1,0.9c0.1,0.2,0.2,0.3,0.3,0.4
		c0.1,0.1,0.3,0.1,0.5,0.1C89.1,9.3,89.3,9.3,89.7,9.2z"/>
	<path style="fill:#FFFFFF;" d="M96.8,3h0.8v6.9h-0.8V9c-0.2,0.3-0.3,0.5-0.5,0.6c-0.2,0.1-0.3,0.2-0.5,0.2c-0.2,0-0.4,0.1-0.6,0.1
		c-0.4,0-0.7-0.1-1-0.3c-0.3-0.2-0.5-0.5-0.7-0.9c-0.2-0.4-0.3-0.8-0.3-1.3c0-0.7,0.2-1.3,0.5-1.8C94.2,5.2,94.7,5,95.3,5
		c0.2,0,0.4,0,0.6,0.1c0.2,0.1,0.3,0.1,0.5,0.3c0.1,0.1,0.3,0.3,0.5,0.6V3z M96.8,7.5c0-0.5-0.1-1-0.4-1.3c-0.2-0.3-0.6-0.5-1-0.5
		c-0.4,0-0.7,0.2-1,0.5c-0.3,0.3-0.4,0.8-0.4,1.4c0,0.7,0.1,1.2,0.4,1.5c0.2,0.3,0.6,0.4,1,0.4c0.3,0,0.5-0.1,0.7-0.2
		s0.4-0.4,0.5-0.7C96.8,8.2,96.8,7.8,96.8,7.5z"/>
	<path style="fill:#FFFFFF;" d="M98.8,4.1V3.3h0.8v0.8H98.8z M98.8,5.1h0.8v4.8h-0.8V5.1z"/>
	<path style="fill:#FFFFFF;" d="M102.2,9.9l-1.9-4.8h0.8l1.5,3.7l1.6-3.7h0.8l-2,4.8H102.2z"/>
	<path style="fill:#FFFFFF;" d="M105.7,4.1V3.3h0.8v0.8H105.7z M105.7,5.1h0.8v4.8h-0.8V5.1z"/>
	<path style="fill:#FFFFFF;" d="M111.1,3h0.8v6.9h-0.8V9c-0.2,0.3-0.3,0.5-0.5,0.6c-0.2,0.1-0.3,0.2-0.5,0.2c-0.2,0-0.4,0.1-0.6,0.1
		c-0.4,0-0.7-0.1-1-0.3c-0.3-0.2-0.5-0.5-0.7-0.9c-0.2-0.4-0.3-0.8-0.3-1.3c0-0.7,0.2-1.3,0.5-1.8c0.4-0.5,0.8-0.7,1.5-0.7
		c0.2,0,0.4,0,0.6,0.1c0.2,0.1,0.3,0.1,0.5,0.3c0.1,0.1,0.3,0.3,0.5,0.6V3z M111.1,7.5c0-0.5-0.1-1-0.4-1.3c-0.2-0.3-0.6-0.5-1-0.5
		c-0.4,0-0.7,0.2-1,0.5c-0.3,0.3-0.4,0.8-0.4,1.4c0,0.7,0.1,1.2,0.4,1.5c0.2,0.3,0.6,0.4,1,0.4c0.3,0,0.5-0.1,0.7-0.2
		s0.4-0.4,0.5-0.7C111,8.2,111.1,7.8,111.1,7.5z"/>
	<path style="fill:#FFFFFF;" d="M116.1,8.6h0.8v0c0,0.2-0.1,0.4-0.2,0.6s-0.4,0.4-0.7,0.5c-0.3,0.1-0.6,0.2-0.9,0.2
		c-0.7,0-1.3-0.2-1.6-0.7c-0.4-0.5-0.6-1.1-0.6-1.8c0-0.7,0.2-1.3,0.6-1.8c0.4-0.5,0.9-0.7,1.6-0.7c0.4,0,0.7,0.1,1,0.2
		s0.5,0.4,0.7,0.7c0.2,0.3,0.3,0.8,0.3,1.4v0.3h-3.3c0,0.5,0.1,0.9,0.4,1.3s0.6,0.5,1.1,0.5c0.3,0,0.6-0.1,0.7-0.2
		C116,9,116.1,8.9,116.1,8.6L116.1,8.6z M113.6,7h2.5V6.9c0-0.2-0.1-0.4-0.2-0.6c-0.1-0.2-0.2-0.4-0.4-0.5c-0.2-0.1-0.4-0.2-0.6-0.2
		c-0.3,0-0.6,0.1-0.8,0.4C113.9,6.2,113.7,6.6,113.6,7z"/>
	<path style="fill:#FFFFFF;" d="M118.8,9.9h-0.8V5.1h0.8V6c0.1-0.2,0.3-0.4,0.4-0.6s0.3-0.2,0.5-0.3C120,5,120.2,5,120.3,5
		c0.2,0,0.3,0,0.4,0.1v0.8c-0.2-0.1-0.4-0.1-0.6-0.1c-0.3,0-0.6,0.1-0.9,0.4s-0.4,0.7-0.4,1.4V9.9z"/>
</g>
</svg>
